<svg width="36" height="42" viewBox="0 0 36 42" fill="none" xmlns="http://www.w3.org/2000/svg">
<g clip-path="url(#clip0_25_31)">
<path d="M28.0768 3.6586C28.5509 2.53478 28.1973 1.22228 27.225 0.5004C26.2527 -0.221475 24.9268 -0.15585 24.0188 0.648057L3.44734 19.0231C2.64377 19.7449 2.35448 20.9016 2.73216 21.9188C3.10984 22.9359 4.07412 23.625 5.14287 23.625H14.1027L7.92323 38.3414C7.44912 39.4652 7.8027 40.7777 8.77502 41.4996C9.74734 42.2215 11.0732 42.1559 11.9813 41.352L32.5527 22.977C33.3563 22.2551 33.6456 21.0984 33.2679 20.0813C32.8902 19.0641 31.9339 18.3832 30.8572 18.3832H21.8973L28.0768 3.6586Z" fill="url(#paint0_linear_25_31)"/>
</g>
<defs>
<linearGradient id="paint0_linear_25_31" x1="18" y1="-0.000732422" x2="18" y2="42.0007" gradientUnits="userSpaceOnUse">
<stop stop-color="#8C5CF5"/>
<stop offset="1" stop-color="#DE45A6"/>
</linearGradient>
<clipPath id="clip0_25_31">
<rect width="36" height="42" fill="white"/>
</clipPath>
</defs>
</svg>
