<svg xmlns="http://www.w3.org/2000/svg" width="24" height="24" viewBox="0 0 24 24" fill="currentColor">
  <path d="M12 21.35l-1.45-1.32C5.4 15.36 2 12.28 2 8.5 2 5.42 4.42 3 7.5 3c1.74 0 3.41.81 4.5 2.09C13.09 3.81 14.76 3 16.5 3 19.58 3 22 5.42 22 8.5c0 3.78-3.4 6.86-8.55 11.54L12 21.35z"/>
  <circle cx="10" cy="10" r="1.5"/>
  <path d="M10 12.5c-1.17 0-3.5.59-3.5 1.75V15h7v-.75c0-1.16-2.33-1.75-3.5-1.75z"/>
  <circle cx="14" cy="10" r="1.5"/>
  <path d="M14 12.5c-.21 0-.44.02-.68.05.58.42.98.98.98 1.7V15h4v-.75c0-1.16-2.33-1.75-3.5-1.75h-.8z"/>
</svg>