<svg xmlns="http://www.w3.org/2000/svg" viewBox="0 0 24 24" fill="#9900FF" width="50px" height="50px">
    <path d="M16.728,2.445c-1.58,0-3.033,0.707-4.007,1.825C11.748,3.152,10.295,2.445,8.715,2.445C6.015,2.445,4,4.46,4,7.16
        c0,1.134,0.389,2.188,1.05,3.033l-0.014,0.018L12,21.5l6.964-11.285c0.661-0.845,1.05-1.9,1.05-3.033
        C20,4.46,17.985,2.445,16.728,2.445z M18,10.182L12.715,18.5l-5.283-8.318C6.792,9.395,6.5,8.324,6.5,7.16
        c0-1.742,1.473-3.215,3.215-3.215c1.23,0,2.32,0.7,2.83,1.75h2.91c0.51-1.05,1.6-1.75,2.83-1.75
        c1.742,0,3.215,1.473,3.215,3.215C21.5,8.324,21.208,9.395,18,10.182z"/>
</svg>